<svg width="20" height="21" viewBox="0 0 20 21" fill="none" xmlns="http://www.w3.org/2000/svg">
<g filter="url(#filter0_d_237_11)">
<mask id="path-1-inside-1_237_11" fill="white">
<path d="M8.19719 11.1366C7.9422 11.5241 7.66905 11.8983 7.37875 12.2578C5.30313 12.1963 4.51562 10.793 4.51562 10.793C4.54513 8.80462 5.00769 6.84921 5.86844 5.07422C6.62505 4.45765 7.54697 4.10136 8.50656 4.05469L8.78781 4.73145C9.18951 4.67335 9.59446 4.64301 10 4.64063C10.4074 4.64202 10.8142 4.67138 11.2178 4.72852L11.4991 4.05176C12.4596 4.10096 13.3816 4.46035 14.1372 5.08008C14.9952 6.85377 15.4558 8.80706 15.4844 10.793C15.4844 10.793 14.6969 12.1963 12.6212 12.2578C12.3353 11.9 12.0669 11.5275 11.8169 11.1416L8.19719 11.1366ZM13.6337 10.292C12.5537 10.8618 11.5086 11.4316 10 11.4316C8.49138 11.4316 7.44625 10.8618 6.36625 10.292"/>
</mask>
<path d="M8.19719 11.1366C7.9422 11.5241 7.66905 11.8983 7.37875 12.2578C5.30313 12.1963 4.51562 10.793 4.51562 10.793C4.54513 8.80462 5.00769 6.84921 5.86844 5.07422C6.62505 4.45765 7.54697 4.10136 8.50656 4.05469L8.78781 4.73145C9.18951 4.67335 9.59446 4.64301 10 4.64063C10.4074 4.64202 10.8142 4.67138 11.2178 4.72852L11.4991 4.05176C12.4596 4.10096 13.3816 4.46035 14.1372 5.08008C14.9952 6.85377 15.4558 8.80706 15.4844 10.793C15.4844 10.793 14.6969 12.1963 12.6212 12.2578C12.3353 11.9 12.0669 11.5275 11.8169 11.1416L8.19719 11.1366ZM13.6337 10.292C12.5537 10.8618 11.5086 11.4316 10 11.4316C8.49138 11.4316 7.44625 10.8618 6.36625 10.292" fill="white"/>
<path d="M8.19719 11.1366L8.20407 6.13663C6.51926 6.13431 4.94657 6.98065 4.02041 8.38807L8.19719 11.1366ZM7.37875 12.2578L7.23061 17.2556C8.79289 17.3019 10.2869 16.615 11.2689 15.399L7.37875 12.2578ZM4.51562 10.793L-0.483825 10.7188C-0.496912 11.6008 -0.276421 12.4706 0.15527 13.2399L4.51562 10.793ZM5.86844 5.07422L2.70985 1.19822C2.14494 1.65858 1.68748 2.23685 1.36951 2.89256L5.86844 5.07422ZM8.50656 4.05469L13.1237 2.13587C12.3144 0.188395 10.3701 -1.04187 8.26365 -0.939408L8.50656 4.05469ZM8.78781 4.73145L4.17066 6.65026C5.04737 8.75986 7.24244 10.0069 9.50343 9.67997L8.78781 4.73145ZM10 4.64063L10.0171 -0.359346C10.0016 -0.359399 9.98607 -0.35938 9.97054 -0.359288L10 4.64063ZM11.2178 4.72852L10.5171 9.67917C12.7735 9.99855 14.9604 8.75176 15.835 6.64733L11.2178 4.72852ZM11.4991 4.05176L11.7548 -0.941696C9.64393 -1.04982 7.69306 0.181101 6.88191 2.13294L11.4991 4.05176ZM14.1372 5.08008L18.6383 2.90283C18.3225 2.25014 17.8686 1.67392 17.308 1.21411L14.1372 5.08008ZM15.4844 10.793V15.793C16.8229 15.793 18.1056 15.2563 19.0453 14.303C19.9849 13.3497 20.5031 12.0594 20.4839 10.721L15.4844 10.793ZM12.6212 12.2578L8.71516 15.3791C9.69646 16.6071 11.1981 17.3022 12.7694 17.2556L12.6212 12.2578ZM11.8169 11.1416L16.0131 8.4229C15.0928 7.0024 13.5163 6.14393 11.8238 6.14161L11.8169 11.1416ZM15.967 14.7142C18.4093 13.4256 19.3446 10.4011 18.056 7.95876C16.7674 5.51644 13.7428 4.58116 11.3005 5.86977L15.967 14.7142ZM8.69948 5.86977C6.25716 4.58116 3.23264 5.51644 1.94403 7.95876C0.655422 10.4011 1.59069 13.4256 4.03302 14.7142L8.69948 5.86977ZM4.02041 8.38807C3.85421 8.64063 3.67669 8.88374 3.48864 9.11662L11.2689 15.399C11.6614 14.9128 12.0302 14.4076 12.374 13.8852L4.02041 8.38807ZM7.52689 7.26001C7.68314 7.26464 7.97707 7.35006 8.25781 7.57063C8.37598 7.66347 8.47869 7.76905 8.57197 7.88539C8.61957 7.94474 8.66789 8.01086 8.71747 8.08545C8.74239 8.12294 8.76799 8.1631 8.79429 8.20625C8.80745 8.22785 8.82084 8.25026 8.83444 8.27352C8.84124 8.28516 8.8481 8.29702 8.85502 8.30911C8.85849 8.31515 8.86196 8.32125 8.86546 8.32741C8.8672 8.33049 8.86895 8.33359 8.87071 8.3367C8.87158 8.33825 8.8729 8.3406 8.87334 8.34137C8.87466 8.34372 8.87598 8.34607 4.51562 10.793C0.15527 13.2399 0.156597 13.2422 0.157928 13.2446C0.158377 13.2454 0.159716 13.2478 0.160616 13.2494C0.162419 13.2526 0.164241 13.2558 0.166084 13.259C0.169769 13.2655 0.173535 13.2721 0.177382 13.2789C0.185077 13.2923 0.193101 13.3062 0.201457 13.3205C0.218166 13.349 0.236223 13.3793 0.255663 13.4112C0.294514 13.475 0.339052 13.5453 0.389559 13.6213C0.49032 13.7729 0.61638 13.9491 0.770232 14.141C1.07603 14.5224 1.50535 14.9826 2.07984 15.434C3.27324 16.3716 4.99873 17.1895 7.23061 17.2556L7.52689 7.26001ZM9.51507 10.8671C9.53383 9.60334 9.8281 8.36793 10.3674 7.25588L1.36951 2.89256C0.187288 5.33048 -0.443573 8.0059 -0.483825 10.7188L9.51507 10.8671ZM9.02702 8.95022C8.97022 8.99651 8.87435 9.04271 8.74947 9.04878L8.26365 -0.939408C6.2196 -0.839987 4.27989 -0.0812097 2.70985 1.19822L9.02702 8.95022ZM3.88941 5.97351L4.17066 6.65026L13.405 2.81263L13.1237 2.13587L3.88941 5.97351ZM9.50343 9.67997C9.67805 9.65472 9.85374 9.64157 10.0295 9.64054L9.97054 -0.359288C9.33518 -0.355544 8.70097 -0.308008 8.07219 -0.217078L9.50343 9.67997ZM9.98286 9.6406C10.1613 9.64121 10.3397 9.65407 10.5171 9.67917L11.9186 -0.222137C11.2886 -0.311302 10.6534 -0.357165 10.0171 -0.359346L9.98286 9.6406ZM15.835 6.64733L16.1162 5.97058L6.88191 2.13294L6.60066 2.8097L15.835 6.64733ZM11.2433 9.04521C11.1183 9.03881 11.0227 8.9923 10.9663 8.94604L17.308 1.21411C15.7405 -0.0715904 13.8009 -0.836892 11.7548 -0.941696L11.2433 9.04521ZM9.63612 7.25733C10.1737 8.36862 10.4667 9.60272 10.4849 10.865L20.4839 10.721C20.4448 8.0114 19.8166 5.33892 18.6383 2.90283L9.63612 7.25733ZM15.4844 10.793C11.124 8.34607 11.1253 8.34372 11.1267 8.34137C11.1271 8.3406 11.1284 8.33825 11.1293 8.3367C11.131 8.33359 11.1328 8.33049 11.1345 8.32741C11.138 8.32125 11.1415 8.31515 11.145 8.30911C11.1519 8.29702 11.1588 8.28516 11.1656 8.27352C11.1792 8.25026 11.1925 8.22785 11.2057 8.20625C11.232 8.1631 11.2576 8.12294 11.2825 8.08545C11.3321 8.01086 11.3804 7.94474 11.428 7.88539C11.5213 7.76905 11.624 7.66347 11.7422 7.57063C12.0229 7.35006 12.3169 7.26464 12.4731 7.26001L12.7694 17.2556C15.0013 17.1895 16.7268 16.3716 17.9202 15.434C18.4946 14.9826 18.924 14.5224 19.2298 14.141C19.3836 13.9491 19.5097 13.7729 19.6104 13.6213C19.6609 13.5453 19.7055 13.475 19.7443 13.4112C19.7638 13.3793 19.7818 13.349 19.7985 13.3205C19.8069 13.3062 19.8149 13.2923 19.8226 13.2789C19.8265 13.2721 19.8302 13.2655 19.8339 13.259C19.8358 13.2558 19.8376 13.2526 19.8394 13.2494C19.8403 13.2478 19.8416 13.2454 19.8421 13.2446C19.8434 13.2422 19.8447 13.2399 15.4844 10.793ZM16.5273 9.13652C16.3452 8.90854 16.1735 8.6704 16.0131 8.4229L7.62061 13.8603C7.96026 14.3846 8.32552 14.8915 8.71516 15.3791L16.5273 9.13652ZM11.8238 6.14161L8.20407 6.13663L8.19031 16.1366L11.81 16.1416L11.8238 6.14161ZM11.3005 5.86977C11.0038 6.02634 10.8154 6.12623 10.6281 6.21774C10.4549 6.30234 10.3419 6.34985 10.2617 6.37914C10.1397 6.42374 10.083 6.43164 10 6.43164V16.4316C12.8987 16.4316 14.9615 15.2447 15.967 14.7142L11.3005 5.86977ZM10 6.43164C9.91695 6.43164 9.86032 6.42374 9.73825 6.37914C9.65809 6.34985 9.54512 6.30234 9.37191 6.21774C9.18456 6.12623 8.99623 6.02634 8.69948 5.86977L4.03302 14.7142C5.03848 15.2447 7.10126 16.4316 10 16.4316V6.43164Z" fill="url(#paint0_linear_237_11)" mask="url(#path-1-inside-1_237_11)"/>
</g>
<path d="M16.1675 0C17.2221 0 18.0715 0.85275 18.1216 1.85738V18L16.1146 16.2951L15.0132 15.2932L13.8089 14.2442L14.3101 15.8968H3.78346C2.73158 15.8968 1.87939 15.0997 1.87939 14.0394V1.86075C1.87939 0.856125 2.73214 0.003375 3.78683 0.003375H16.1618L16.1675 0ZM11.5791 4.26263H11.5555L11.4031 4.41225C12.959 4.86337 13.7116 5.5665 13.7116 5.5665C12.7098 5.06531 11.8041 4.81331 10.9019 4.71094C10.2516 4.61137 9.59802 4.66425 9.04733 4.71094H8.89489C8.54333 4.71094 7.79352 4.86338 6.78833 5.26444C6.43958 5.41688 6.23764 5.51644 6.23764 5.51644C6.23764 5.51644 6.98746 4.76325 8.64571 4.36219L8.54333 4.26263C8.54333 4.26263 7.28952 4.21256 5.93614 5.21494C5.93614 5.21494 4.58277 7.5735 4.58277 10.4794C4.58277 10.4794 5.33258 11.7832 7.38964 11.8327C7.38964 11.8327 7.69114 11.4345 7.99321 11.0829C6.83896 10.7314 6.38783 10.0282 6.38783 10.0282C6.38783 10.0282 6.49021 10.0783 6.63983 10.1779H6.68371C6.70733 10.1779 6.71914 10.1897 6.73039 10.2015V10.2071C6.74221 10.2189 6.75402 10.2274 6.77427 10.2274C7.02346 10.3297 7.26927 10.4293 7.47177 10.5289C7.82333 10.6785 8.27164 10.8304 8.82233 10.9305C9.51983 11.0329 10.3191 11.0801 11.2304 10.9305C11.6787 10.8281 12.1298 10.7314 12.581 10.5289C12.8712 10.3793 13.2312 10.2302 13.6266 9.97537C13.6266 9.97537 13.1783 10.6785 11.974 11.0301C12.2204 11.3788 12.5686 11.7799 12.5686 11.7799C14.6279 11.7332 15.4278 10.4293 15.4716 10.485C15.4716 7.58194 14.1093 5.22056 14.1093 5.22056C12.8847 4.30931 11.7361 4.27444 11.5341 4.27444L11.5752 4.25981L11.5791 4.26263ZM11.7051 7.5735C12.2328 7.5735 12.6575 8.02181 12.6575 8.5725C12.6575 9.12937 12.23 9.57712 11.7051 9.57712C11.1775 9.57712 10.7528 9.12881 10.7528 8.57812C10.7528 8.02125 11.1803 7.5735 11.7051 7.5735ZM8.29808 7.5735C8.82233 7.5735 9.24758 8.02181 9.24758 8.5725C9.24758 9.12937 8.82008 9.57712 8.29527 9.57712C7.76764 9.57712 7.34014 9.12881 7.34014 8.57812C7.34014 8.02125 7.76764 7.5735 8.29527 7.5735H8.29808Z" fill="url(#paint1_linear_237_11)"/>
<defs>
<filter id="filter0_d_237_11" x="-0.75" y="1.125" width="21.5" height="22.0625" filterUnits="userSpaceOnUse" color-interpolation-filters="sRGB">
<feFlood flood-opacity="0" result="BackgroundImageFix"/>
<feColorMatrix in="SourceAlpha" type="matrix" values="0 0 0 0 0 0 0 0 0 0 0 0 0 0 0 0 0 0 127 0" result="hardAlpha"/>
<feOffset dy="4"/>
<feGaussianBlur stdDeviation="2"/>
<feComposite in2="hardAlpha" operator="out"/>
<feColorMatrix type="matrix" values="0 0 0 0 0 0 0 0 0 0 0 0 0 0 0 0 0 0 0.25 0"/>
<feBlend mode="normal" in2="BackgroundImageFix" result="effect1_dropShadow_237_11"/>
<feBlend mode="normal" in="SourceGraphic" in2="effect1_dropShadow_237_11" result="shape"/>
</filter>
<linearGradient id="paint0_linear_237_11" x1="5.53237" y1="3.30775" x2="18.6459" y2="8.90709" gradientUnits="userSpaceOnUse">
<stop stop-color="white" stop-opacity="0"/>
<stop offset="1" stop-color="#2E62EB"/>
</linearGradient>
<linearGradient id="paint1_linear_237_11" x1="3.38495" y1="-1.63199" x2="24.5822" y2="4.47807" gradientUnits="userSpaceOnUse">
<stop stop-color="#C54A92"/>
<stop offset="1" stop-color="#2E62EB"/>
</linearGradient>
</defs>
</svg>
