<svg width="30" height="29" viewBox="0 0 30 29" fill="none" xmlns="http://www.w3.org/2000/svg">
<g filter="url(#filter0_d_231_19)">
<path d="M15.0004 5.8219C13.7207 5.84412 12.5012 6.34692 11.6043 7.2221C10.7075 8.09728 10.205 9.2749 10.205 10.5015C10.205 11.7282 10.7075 12.9058 11.6043 13.781C12.5012 14.6562 13.7207 15.159 15.0004 15.1812C16.2801 15.159 17.4996 14.6562 18.3965 13.781C19.2933 12.9058 19.7958 11.7282 19.7958 10.5015C19.7958 9.2749 19.2933 8.09728 18.3965 7.2221C17.4996 6.34692 16.2801 5.84412 15.0004 5.8219ZM15.0004 13.9406C14.0487 13.9406 13.1359 13.5783 12.4629 12.9333C11.7899 12.2884 11.4118 11.4136 11.4118 10.5015C11.4118 9.58943 11.7899 8.71468 12.4629 8.06973C13.1359 7.42477 14.0487 7.06244 15.0004 7.06244C15.9521 7.06244 16.8649 7.42477 17.5379 8.06973C18.2109 8.71468 18.589 9.58943 18.589 10.5015C18.589 11.4136 18.2109 12.2884 17.5379 12.9333C16.8649 13.5783 15.9521 13.9406 15.0004 13.9406ZM21.8699 0H8.13006C7.58758 0.0001008 7.05045 0.102598 6.54931 0.30164C6.04817 0.500681 5.59285 0.792369 5.20933 1.16005C4.82582 1.52773 4.52163 1.9642 4.31414 2.44454C4.10664 2.92489 3.99989 3.43969 4 3.95957V17.042C4 19.2298 5.85036 21 8.13006 21H21.8699C24.1528 21 26 19.2267 26 17.0427V3.96111C26 1.77329 24.152 0 21.8699 0ZM19.9956 2.35977C19.9956 1.89534 20.3881 1.51766 20.8743 1.51766H23.4536C23.9374 1.51766 24.3315 1.89381 24.3315 2.35977V4.83163C24.3315 5.29529 23.939 5.67298 23.452 5.67298H20.8727C20.3897 5.67298 19.9948 5.29683 19.9948 4.83086V2.35901L19.9956 2.35977ZM25.1221 17.0427C25.1221 18.7607 23.6642 20.1594 21.8699 20.1594H8.13006C7.2678 20.1586 6.44109 19.83 5.83138 19.2457C5.22167 18.6613 4.87877 17.8691 4.87792 17.0427V6.57114H5.54036C5.62206 6.18731 5.97611 5.89713 6.40146 5.89713H9.15536C9.5799 5.89713 9.93555 6.18654 10.0157 6.57037H11.2156C12.2104 5.68987 13.5385 5.15097 15.0004 5.15097C16.4623 5.15097 17.7879 5.68833 18.7836 6.56883H25.1213V17.042H25.1229L25.1221 17.0427Z" fill="url(#paint0_linear_231_19)"/>
</g>
<defs>
<filter id="filter0_d_231_19" x="0" y="0" width="30" height="29" filterUnits="userSpaceOnUse" color-interpolation-filters="sRGB">
<feFlood flood-opacity="0" result="BackgroundImageFix"/>
<feColorMatrix in="SourceAlpha" type="matrix" values="0 0 0 0 0 0 0 0 0 0 0 0 0 0 0 0 0 0 127 0" result="hardAlpha"/>
<feOffset dy="4"/>
<feGaussianBlur stdDeviation="2"/>
<feComposite in2="hardAlpha" operator="out"/>
<feColorMatrix type="matrix" values="0 0 0 0 0 0 0 0 0 0 0 0 0 0 0 0 0 0 0.25 0"/>
<feBlend mode="normal" in2="BackgroundImageFix" result="effect1_dropShadow_231_19"/>
<feBlend mode="normal" in="SourceGraphic" in2="effect1_dropShadow_231_19" result="shape"/>
</filter>
<linearGradient id="paint0_linear_231_19" x1="6.03928" y1="-1.90399" x2="34.0044" y2="7.45472" gradientUnits="userSpaceOnUse">
<stop stop-color="#C54A92"/>
<stop offset="1" stop-color="#2E62EB"/>
</linearGradient>
</defs>
</svg>
