<svg width="27" height="27" viewBox="0 0 27 27" fill="none" xmlns="http://www.w3.org/2000/svg">
<g filter="url(#filter0_d_231_19)">
<path d="M13.5003 5.71297C12.5114 5.73095 11.5691 6.13798 10.8761 6.84646C10.1831 7.55494 9.7948 8.50825 9.7948 9.50124C9.7948 10.4942 10.1831 11.4475 10.8761 12.156C11.5691 12.8645 12.5114 13.2715 13.5003 13.2895C14.4892 13.2715 15.4315 12.8645 16.1245 12.156C16.8175 11.4475 17.2058 10.4942 17.2058 9.50124C17.2058 8.50825 16.8175 7.55494 16.1245 6.84646C15.4315 6.13798 14.4892 5.73095 13.5003 5.71297ZM13.5003 12.2853C12.7649 12.2853 12.0595 11.992 11.5395 11.4699C11.0195 10.9477 10.7273 10.2396 10.7273 9.50124C10.7273 8.76287 11.0195 8.05474 11.5395 7.53263C12.0595 7.01053 12.7649 6.71721 13.5003 6.71721C14.2358 6.71721 14.9411 7.01053 15.4611 7.53263C15.9811 8.05474 16.2733 8.76287 16.2733 9.50124C16.2733 10.2396 15.9811 10.9477 15.4611 11.4699C14.9411 11.992 14.2358 12.2853 13.5003 12.2853ZM18.8086 1H8.19141C7.77222 1.00008 7.35716 1.08306 6.96992 1.24418C6.58268 1.40531 6.23083 1.64144 5.93449 1.93909C5.63814 2.23673 5.40308 2.59007 5.24274 2.97892C5.0824 3.36777 4.99992 3.78451 5 4.20537V14.7959C5 16.567 6.42982 18 8.19141 18H18.8086C20.5727 18 22 16.5645 22 14.7965V4.20661C22 2.43552 20.572 1 18.8086 1ZM17.3602 2.91029C17.3602 2.53433 17.6635 2.22858 18.0392 2.22858H20.0323C20.4062 2.22858 20.7107 2.53308 20.7107 2.91029V4.91132C20.7107 5.28667 20.4074 5.59241 20.0311 5.59241H18.038C17.6647 5.59241 17.3596 5.28791 17.3596 4.9107V2.90967L17.3602 2.91029ZM21.3216 14.7965C21.3216 16.1873 20.1951 17.3195 18.8086 17.3195H8.19141C7.52512 17.3189 6.8863 17.0528 6.41516 16.5798C5.94402 16.1068 5.67905 15.4654 5.67839 14.7965V6.31949H6.19028C6.25341 6.00877 6.527 5.77387 6.85567 5.77387H8.98369C9.31174 5.77387 9.58657 6.00815 9.64846 6.31887H10.5757C11.3444 5.60608 12.3707 5.16983 13.5003 5.16983C14.6299 5.16983 15.6543 5.60484 16.4237 6.31763H21.321V14.7959H21.3222L21.3216 14.7965Z" fill="url(#paint0_linear_231_19)"/>
<path d="M10.7119 6.58615C10.695 6.60283 10.6783 6.61968 10.6616 6.63669C9.91366 7.40135 9.4948 8.43 9.4948 9.50124C9.4948 10.5725 9.91366 11.6011 10.6616 12.3658C11.4096 13.1305 12.427 13.57 13.4949 13.5895L13.4949 13.5897L13.5058 13.5895C14.5736 13.57 15.591 13.1305 16.339 12.3658C17.087 11.6011 17.5058 10.5725 17.5058 9.50124C17.5058 8.43 17.087 7.40135 16.339 6.63669C16.3219 6.61925 16.3047 6.60198 16.2874 6.58488C16.3293 6.60623 16.3759 6.61763 16.4237 6.61763H21.021V14.7959C21.021 14.802 21.0212 14.8081 21.0215 14.8142C21.012 16.0324 20.0223 17.0195 18.8086 17.0195H8.1917C7.60526 17.0189 7.04276 16.7848 6.62771 16.3681C6.21266 15.9514 5.979 15.3861 5.97839 14.7963V6.61949H6.19028C6.33294 6.61949 6.45586 6.51903 6.48427 6.37923C6.51986 6.20407 6.67394 6.07387 6.85567 6.07387H8.98369C9.16591 6.07387 9.31976 6.20439 9.35424 6.37748C9.3822 6.51781 9.50537 6.61887 9.64846 6.61887H10.5757C10.6234 6.61887 10.6701 6.60748 10.7119 6.58615ZM8.19141 0.7H8.19135C7.7326 0.700089 7.2784 0.790896 6.85467 0.967205C6.43095 1.14351 6.04604 1.40185 5.72189 1.72742C5.39775 2.05298 5.14071 2.43939 4.96539 2.86455C4.79009 3.2897 4.69992 3.7453 4.7 4.20537C4.7 4.20539 4.7 4.2054 4.7 4.20542V14.7959C4.7 16.7317 6.26316 18.3 8.19141 18.3H18.8086C20.7396 18.3 22.3 16.7289 22.3 14.7965V4.20661C22.3 2.27122 20.7391 0.7 18.8086 0.7H8.19141ZM17.6596 2.92959C17.66 2.9232 17.6602 2.91676 17.6602 2.91029C17.6602 2.69853 17.8307 2.52858 18.0392 2.52858H20.0323C20.2395 2.52858 20.4107 2.69782 20.4107 2.91029V4.91132C20.4107 5.12211 20.2406 5.29241 20.0311 5.29241H18.038C17.8312 5.29241 17.6596 5.12299 17.6596 4.9107V2.92959ZM13.5003 11.9853C12.8448 11.9853 12.2159 11.7239 11.7521 11.2581C11.2882 10.7924 11.0273 10.1604 11.0273 9.50124C11.0273 8.84205 11.2882 8.2101 11.7521 7.74434C12.2159 7.27863 12.8448 7.01721 13.5003 7.01721C14.1558 7.01721 14.7847 7.27863 15.2486 7.74434C15.7125 8.2101 15.9733 8.84205 15.9733 9.50124C15.9733 10.1604 15.7125 10.7924 15.2486 11.2581C14.7847 11.7239 14.1558 11.9853 13.5003 11.9853Z" stroke="white" stroke-width="0.6" stroke-linejoin="round"/>
</g>
<defs>
<filter id="filter0_d_231_19" x="0.399902" y="0.399902" width="26.2002" height="26.2001" filterUnits="userSpaceOnUse" color-interpolation-filters="sRGB">
<feFlood flood-opacity="0" result="BackgroundImageFix"/>
<feColorMatrix in="SourceAlpha" type="matrix" values="0 0 0 0 0 0 0 0 0 0 0 0 0 0 0 0 0 0 127 0" result="hardAlpha"/>
<feOffset dy="4"/>
<feGaussianBlur stdDeviation="2"/>
<feComposite in2="hardAlpha" operator="out"/>
<feColorMatrix type="matrix" values="0 0 0 0 0 0 0 0 0 0 0 0 0 0 0 0 0 0 0.25 0"/>
<feBlend mode="normal" in2="BackgroundImageFix" result="effect1_dropShadow_231_19"/>
<feBlend mode="normal" in="SourceGraphic" in2="effect1_dropShadow_231_19" result="shape"/>
</filter>
<linearGradient id="paint0_linear_231_19" x1="6.5758" y1="-0.541326" x2="28.3804" y2="6.42402" gradientUnits="userSpaceOnUse">
<stop stop-color="#C54A92"/>
<stop offset="1" stop-color="#2E62EB"/>
</linearGradient>
</defs>
</svg>
