<svg width="24" height="16" viewBox="0 0 24 16" fill="none" xmlns="http://www.w3.org/2000/svg">
<path d="M9.76359 10.9457L15.7269 7.77102L9.76359 4.55902V10.9457ZM12.0438 -0.000309896C13.4242 -0.000309896 14.7574 0.0188012 16.0433 0.0570234C17.3292 0.0952457 18.272 0.135468 18.8716 0.17769L19.771 0.231023C19.7792 0.231023 19.8482 0.237468 19.9781 0.250357C20.0861 0.259023 20.1832 0.272357 20.2789 0.291023L20.2621 0.288357C20.3199 0.301246 20.4166 0.320357 20.552 0.34569C20.6847 0.369023 20.8031 0.404357 20.915 0.451023L20.9034 0.447023C21.0021 0.489246 21.1173 0.544357 21.2489 0.612357C21.3945 0.688357 21.52 0.771023 21.6365 0.86369L21.6313 0.85969C21.7627 0.965023 21.8791 1.07502 21.9865 1.19436L21.9885 1.19636C22.0545 1.26769 22.1172 1.34436 22.1748 1.42436L22.1794 1.43102C22.3101 1.64302 22.4304 1.88836 22.5268 2.14502L22.5365 2.17436C22.6918 2.54702 22.8064 2.97902 22.8607 3.43102L22.8633 3.45436C22.9289 3.99613 22.9806 4.57391 23.0186 5.18769C23.0566 5.80147 23.0792 6.28147 23.0865 6.62769V8.86236L23.0872 9.03769C23.0872 10.273 23.0063 11.4897 22.8497 12.681L22.8646 12.5424C22.8133 12.9876 22.7049 13.4238 22.5424 13.8397L22.554 13.8057C22.4564 14.0871 22.3214 14.3532 22.1528 14.5964L22.1593 14.5864L21.9872 14.7997C21.8792 14.9197 21.7619 15.0305 21.6365 15.131L21.63 15.1364C21.5154 15.2282 21.3915 15.3071 21.2605 15.3717L21.2482 15.377C21.1167 15.4406 21.0015 15.4939 20.9027 15.537C20.7928 15.5827 20.6785 15.6163 20.5617 15.637L20.5514 15.6384C20.4159 15.6637 20.3173 15.6828 20.2557 15.6957C20.194 15.7086 20.0995 15.7212 19.9722 15.7337C19.845 15.7461 19.7773 15.7526 19.7691 15.753C17.7093 15.9184 15.1346 16.001 12.0451 16.001C10.3442 15.9841 8.8672 15.9566 7.61406 15.9184C6.36093 15.8801 5.53722 15.8484 5.14295 15.823L4.53859 15.7697L4.09471 15.7164C3.85448 15.6865 3.61632 15.6411 3.38165 15.5804L3.42177 15.589C3.19756 15.5178 2.98029 15.4252 2.77277 15.3124L2.79348 15.3224C2.53404 15.192 2.29865 15.016 2.09789 14.8024L2.09724 14.8017C2.03065 14.7297 1.96841 14.6536 1.91089 14.5737L1.90636 14.567C1.76841 14.3412 1.65204 14.102 1.55889 13.853L1.54918 13.8237C1.3849 13.4224 1.27579 12.9994 1.22501 12.567L1.22242 12.5437C1.15685 12.0019 1.10508 11.4241 1.06712 10.8104C1.02916 10.1966 1.00652 9.71658 0.999182 9.37036V7.13569L0.998535 6.96036C0.998535 5.72502 1.07942 4.50836 1.23601 3.31702L1.22112 3.45569C1.27244 3.01048 1.3808 2.57424 1.54336 2.15836L1.53171 2.19236C1.63654 1.89436 1.76983 1.63636 1.93289 1.40169L1.92642 1.41169L2.09854 1.19836C2.20789 1.07702 2.32436 0.967024 2.44924 0.867023L2.45571 0.86169C2.56701 0.772357 2.69189 0.690357 2.82454 0.620357L2.83812 0.61369C2.96969 0.546135 3.08487 0.491023 3.18365 0.448357C3.29355 0.402647 3.40786 0.369125 3.52465 0.348357L3.53501 0.347023C3.67046 0.32169 3.76708 0.302579 3.82489 0.28969C3.90318 0.27369 4.00024 0.260357 4.09924 0.252357L4.10895 0.25169C4.24052 0.238801 4.30954 0.232357 4.31601 0.232357C6.37926 0.0768012 8.95585 -0.000976562 12.0458 -0.000976562L12.0438 -0.000309896Z" fill="url(#paint0_linear_261_6)"/>
<defs>
<linearGradient id="paint0_linear_261_6" x1="3.04603" y1="-1.45182" x2="29.1859" y2="10.0746" gradientUnits="userSpaceOnUse">
<stop stop-color="#C54A92"/>
<stop offset="1" stop-color="#2E62EB"/>
</linearGradient>
</defs>
</svg>
