<svg width="22" height="22" viewBox="0 0 22 22" fill="none" xmlns="http://www.w3.org/2000/svg">
<path d="M11.2865 6.85944V4.51569C11.2865 4.0023 11.0998 3.74561 10.7266 3.74561C10.3533 3.74561 10.1667 4.0023 10.1667 4.51569V6.85944C10.1667 7.38028 10.3533 7.64069 10.7266 7.64069C11.0998 7.64069 11.2865 7.38028 11.2865 6.85944ZM20.6484 15.2411C20.6484 16.9822 20.5356 18.2843 20.3099 19.1474C20.1884 19.5864 19.9366 19.9547 19.5547 20.2523C19.1727 20.5499 18.73 20.7211 18.2266 20.7657C16.6293 20.9219 14.2205 21.0001 11 21.0001C7.77951 21.0001 5.37066 20.9219 3.77344 20.7657C3.26997 20.7211 2.82509 20.5499 2.4388 20.2523C2.05252 19.9547 1.80295 19.5864 1.6901 19.1474C1.46441 18.3141 1.35156 17.012 1.35156 15.2411C1.35156 13.5001 1.46441 12.198 1.6901 11.3349C1.81163 10.8959 2.06337 10.5276 2.44531 10.23C2.82726 9.93236 3.27431 9.75751 3.78646 9.70543C5.375 9.55662 7.77951 9.48221 11 9.48221C14.2205 9.48221 16.6293 9.55662 18.2266 9.70543C18.73 9.75751 19.1749 9.93236 19.5612 10.23C19.9475 10.5276 20.197 10.8959 20.3099 11.3349C20.5356 12.1682 20.6484 13.4703 20.6484 15.2411Z" fill="black"/>
<path d="M13.6432 14.8838V17.2387C13.6432 17.7372 13.474 17.9865 13.1354 17.9865C12.9358 17.9865 12.7405 17.9047 12.5495 17.741V14.3816C12.7405 14.2179 12.9358 14.1361 13.1354 14.1361C13.474 14.1361 13.6432 14.3853 13.6432 14.8838ZM18.0443 14.895V15.4084H16.8724V14.895C16.8724 14.389 17.0677 14.1361 17.4583 14.1361C17.849 14.1361 18.0443 14.389 18.0443 14.895ZM5.46615 12.4619H6.85937V11.4128H2.79688V12.4619H4.16406V18.8124H5.46615V12.4619ZM9.21615 18.8124H10.375V13.299H9.21615V17.5178C8.95573 17.8303 8.70833 17.9865 8.47396 17.9865C8.31771 17.9865 8.22656 17.9084 8.20052 17.7521C8.19184 17.7298 8.1875 17.5996 8.1875 17.3615V13.299H7.02865V17.6628C7.02865 18.0274 7.06337 18.299 7.13281 18.4776C7.23698 18.7529 7.48872 18.8905 7.88802 18.8905C8.30469 18.8905 8.7474 18.6636 9.21615 18.2097V18.8124ZM14.8021 17.1606V14.9619C14.8021 14.4188 14.763 14.0505 14.6849 13.857C14.5373 13.4404 14.2292 13.232 13.7604 13.232C13.3264 13.232 12.9227 13.4329 12.5495 13.8347V11.4128H11.3906V18.8124H12.5495V18.2767C12.9401 18.6859 13.3437 18.8905 13.7604 18.8905C14.2292 18.8905 14.5373 18.6859 14.6849 18.2767C14.763 18.0758 14.8021 17.7038 14.8021 17.1606ZM19.2031 17.049V16.9039H18.0182C18.0182 17.2834 18.0095 17.5103 17.9922 17.5847C17.9314 17.8526 17.7578 17.9865 17.4714 17.9865C17.072 17.9865 16.8724 17.7298 16.8724 17.2164V16.2454H19.2031V15.0959C19.2031 14.5081 19.0859 14.0765 18.8516 13.8012C18.513 13.4218 18.053 13.232 17.4714 13.232C16.8811 13.232 16.4167 13.4218 16.0781 13.8012C15.8351 14.0765 15.7135 14.5081 15.7135 15.0959V17.0267C15.7135 17.6145 15.8394 18.046 16.0911 18.3213C16.4297 18.7008 16.8984 18.8905 17.4974 18.8905C18.1224 18.8905 18.5911 18.6933 18.9036 18.299C19.0599 18.0981 19.151 17.8972 19.1771 17.6963C19.1944 17.6294 19.2031 17.4136 19.2031 17.049Z" fill="url(#paint0_linear_239_30)"/>
<path d="M7.65348 1H8.98161L7.40609 5.45313V8.47768H6.104V5.45313C5.98248 4.90253 5.71772 4.11384 5.30973 3.08705C4.98855 2.32068 4.70643 1.625 4.46338 1H5.84359L6.76807 3.93527L7.65348 1ZM12.4712 4.71652V6.66964C12.4712 7.27232 12.3497 7.71131 12.1066 7.98661C11.7767 8.36607 11.3167 8.5558 10.7264 8.5558C10.1448 8.5558 9.68907 8.36607 9.35921 7.98661C9.11616 7.70387 8.99463 7.26488 8.99463 6.66964V4.71652C8.99463 4.12128 9.11616 3.68601 9.35921 3.41071C9.68907 3.03125 10.1448 2.84152 10.7264 2.84152C11.3167 2.84152 11.7767 3.03125 12.1066 3.41071C12.3497 3.68601 12.4712 4.12128 12.4712 4.71652ZM16.8332 2.90848V8.47768H15.6483V7.86384C15.1882 8.32515 14.7412 8.5558 14.3071 8.5558C13.9078 8.5558 13.6517 8.41815 13.5389 8.14286C13.4695 7.96429 13.4347 7.68527 13.4347 7.3058V2.90848H14.6196V7.00446C14.6196 7.25 14.624 7.38021 14.6327 7.39509C14.6587 7.55878 14.7498 7.64063 14.9061 7.64063C15.1405 7.64063 15.3879 7.48065 15.6483 7.16071V2.90848H16.8332Z" fill="url(#paint1_linear_239_30)"/>
<path d="M4 1.6H18V0.4H4V1.6ZM20.4 4V18H21.6V4H20.4ZM18 20.4H4V21.6H18V20.4ZM1.6 18V4H0.4V18H1.6ZM4 20.4C2.67452 20.4 1.6 19.3255 1.6 18H0.4C0.4 19.9882 2.01177 21.6 4 21.6V20.4ZM20.4 18C20.4 19.3255 19.3255 20.4 18 20.4V21.6C19.9882 21.6 21.6 19.9882 21.6 18H20.4ZM18 1.6C19.3255 1.6 20.4 2.67452 20.4 4H21.6C21.6 2.01178 19.9882 0.4 18 0.4V1.6ZM4 0.4C2.01178 0.4 0.4 2.01177 0.4 4H1.6C1.6 2.67452 2.67452 1.6 4 1.6V0.4Z" fill="white"/>
<defs>
<linearGradient id="paint0_linear_239_30" x1="4.31764" y1="10.7349" x2="19.8689" y2="21.6343" gradientUnits="userSpaceOnUse">
<stop stop-color="#C54A92"/>
<stop offset="1" stop-color="#2E62EB"/>
</linearGradient>
<linearGradient id="paint1_linear_239_30" x1="5.60999" y1="0.314944" x2="19.3397" y2="7.49518" gradientUnits="userSpaceOnUse">
<stop stop-color="#C54A92"/>
<stop offset="1" stop-color="#2E62EB"/>
</linearGradient>
</defs>
</svg>
